# Blender v2.83.1 OBJ File: ''
# www.blender.org
mtllib key.mtl
o Cube
v -0.819967 -0.810644 -1.000000
v -0.819967 -1.000000 -1.000000
v -0.819967 -0.810644 1.000000
v -0.819967 -1.000000 1.000000
v -1.000000 -0.810644 -1.000000
v -1.000000 -1.000000 -1.000000
v -1.000000 -0.810644 1.000000
v -1.000000 -1.000000 1.000000
v -1.000000 -1.000000 0.821202
v -0.819967 -0.810644 0.821202
v -1.000000 -0.810644 0.821202
v -0.819967 -1.000000 0.821202
v -0.425905 -0.810644 1.000000
v -0.425905 -1.000000 1.000000
v -0.427863 -0.810644 0.821202
v -0.427863 -1.000000 0.821202
v -1.000000 -0.810644 0.382647
v -0.819967 -1.000000 0.382647
v -1.000000 -1.000000 0.382647
v -0.819967 -0.810644 0.382647
v -1.000000 -0.810644 0.182650
v -0.819967 -1.000000 0.182650
v -1.000000 -1.000000 0.182650
v -0.819967 -0.810644 0.182650
v -1.000000 -0.810644 -0.244008
v -0.819967 -1.000000 -0.244008
v -1.000000 -1.000000 -0.244008
v -0.819967 -0.810644 -0.244008
v -1.000000 -0.810644 -0.444076
v -0.819967 -1.000000 -0.444076
v -1.000000 -1.000000 -0.444076
v -0.819967 -0.810644 -0.444076
v -0.538366 -0.901468 0.182650
v -0.538366 -0.890001 0.382647
v -0.538366 -0.932737 0.382647
v -0.538366 -0.929883 0.182650
v -0.344840 -0.881722 -0.444076
v -0.344840 -0.964692 -0.244008
v -0.344840 -1.000000 -0.244008
v -0.344840 -1.066058 -0.444076
v -1.000000 -1.000000 0.282648
v -0.819967 -0.810644 0.282648
v -1.000000 -0.810644 0.282648
v -0.819967 -1.000000 0.282648
v -0.612927 -0.810644 0.282648
v -0.612927 -1.000000 0.282648
v -1.000000 -1.000000 0.910601
v -0.819967 -0.810644 0.910601
v -1.000000 -0.810644 0.910601
v -0.819967 -1.000000 0.910601
v -0.364905 -0.878177 0.910601
v -0.364905 -0.921058 0.910601
v -1.000000 -1.000000 -0.344042
v -0.819967 -0.810644 -0.344042
v -1.000000 -0.810644 -0.344042
v -0.819967 -1.000000 -0.344042
v -0.344840 -0.981702 -0.362668
v -0.344840 -1.000000 -0.344042
v -1.000000 -0.810644 -0.838148
v -0.819967 -1.000000 -0.838148
v -1.000000 -1.000000 -0.838148
v -0.819967 -0.810644 -0.838148
v -1.010582 -0.810644 -0.990709
v -1.010582 -1.000000 -0.990709
v -1.085880 -0.810644 -0.847439
v -1.085880 -1.000000 -0.847438
v -1.085238 -0.810644 -1.019578
v -1.085238 -1.000000 -1.019578
v -1.218264 -0.810644 -0.927382
v -1.218264 -1.000000 -0.927382
v -1.149607 -0.810644 -1.096553
v -1.149607 -1.000000 -1.096553
v -1.310127 -0.810644 -1.075828
v -1.310127 -1.000000 -1.075828
v -1.196995 -0.810644 -1.371933
v -1.196995 -1.000000 -1.371933
v -1.344985 -0.810644 -1.437471
v -1.344985 -1.000000 -1.437471
v -1.177298 -0.810644 -1.452054
v -1.177298 -1.000000 -1.452054
v -1.261538 -0.810644 -1.590255
v -1.261538 -1.000000 -1.590255
v -1.096143 -0.810644 -1.511072
v -1.096143 -1.000000 -1.511072
v -1.111434 -0.810644 -1.672200
v -1.111434 -1.000000 -1.672200
v -0.876869 -0.810644 -1.531881
v -0.876869 -1.000000 -1.531881
v -0.892161 -0.810644 -1.693010
v -0.892161 -1.000000 -1.693010
v -0.789667 -0.810644 -1.549627
v -0.789667 -1.000000 -1.549627
v -0.727701 -0.810644 -1.699148
v -0.727701 -1.000000 -1.699148
v -0.738217 -0.810644 -1.539897
v -0.738217 -1.000000 -1.539897
v -0.610116 -0.810644 -1.638824
v -0.610116 -1.000000 -1.638824
v -0.698059 -0.799352 -1.503682
v -0.698059 -0.988708 -1.503682
v -0.536207 -0.799352 -1.504297
v -0.536207 -0.988708 -1.504297
v -0.693384 -0.799352 -1.155779
v -0.693384 -0.988708 -1.155779
v -0.538062 -0.799352 -1.110269
v -0.538062 -0.988708 -1.110269
v -0.760491 -0.740048 -1.026496
v -0.760491 -0.929404 -1.026496
v -0.605168 -0.740048 -0.980986
v -0.605168 -0.929404 -0.980986
v -0.937292 -0.647624 -0.887856
v -0.937292 -0.836980 -0.887856
v -0.781969 -0.647624 -0.842346
v -0.781969 -0.836980 -0.842346
v -1.006370 -0.647624 -0.652097
v -1.006370 -0.836980 -0.652097
v -0.851048 -0.647624 -0.606586
v -0.851048 -0.836980 -0.606586
v -1.165963 -0.810954 -0.564636
v -1.165963 -1.000310 -0.564636
v -1.010641 -0.810954 -0.519126
v -1.010641 -1.000310 -0.519126
v -1.038899 -1.043095 -0.435292
v -1.038899 -1.232451 -0.435292
v -0.883577 -1.043095 -0.389782
v -0.883577 -1.232451 -0.389782
v -1.003293 -0.907743 -0.099610
v -1.003293 -1.097099 -0.099610
v -0.847970 -0.907743 -0.054100
v -0.847970 -1.097099 -0.054100
v -0.997808 -0.814303 0.054006
v -0.997808 -1.003659 0.054006
v -0.842486 -0.814303 0.099516
v -0.842486 -1.003659 0.099516
vt 0.364901 0.274318
vt 0.312116 0.274318
vt 0.312116 0.250000
vt 0.364901 0.250000
vt 0.419053 0.185271
vt 0.474571 0.185271
vt 0.474571 0.234242
vt 0.419053 0.234242
vt 0.125000 0.500000
vt 0.125000 0.511109
vt 0.125000 0.511109
vt 0.125000 0.500000
vt 0.125000 0.687500
vt 0.375000 0.687500
vt 0.375000 0.750000
vt 0.125000 0.750000
vt 0.419053 0.078081
vt 0.474571 0.078081
vt 0.375000 0.250000
vt 0.625000 0.250000
vt 0.625000 0.500000
vt 0.375000 0.500000
vt 0.419053 0.371969
vt 0.474571 0.371969
vt 0.474571 0.491262
vt 0.419053 0.491262
vt 0.125000 0.594899
vt 0.375000 0.594899
vt 0.375000 0.625000
vt 0.125000 0.625000
vt 0.375000 0.062500
vt 0.625000 0.062500
vt 0.625000 0.125000
vt 0.375000 0.125000
vt 0.364901 0.417928
vt 0.312116 0.417928
vt 0.312116 0.298635
vt 0.364901 0.298635
vt 0.949575 0.627110
vt 0.949575 0.615446
vt 0.981307 0.597076
vt 0.981307 0.648583
vt 0.375000 0.625000
vt 0.375000 0.687500
vt 0.908354 0.187579
vt 0.883617 0.188094
vt 0.878010 0.081332
vt 0.908354 0.062698
vt 0.625000 0.625000
vt 0.625000 0.625000
vt 0.364901 0.445129
vt 0.312116 0.445129
vt 0.125000 0.588036
vt 0.375000 0.588036
vt 0.375000 0.581172
vt 0.375000 0.581172
vt 0.375000 0.588036
vt 0.625000 0.155101
vt 0.375000 0.155101
vt 0.696644 0.174085
vt 0.641126 0.174085
vt 0.641126 0.058028
vt 0.696644 0.058028
vt 0.125000 0.551888
vt 0.375000 0.551888
vt 0.125000 0.581172
vt 0.364901 0.588386
vt 0.312116 0.588386
vt 0.312116 0.472330
vt 0.364901 0.472330
vt 0.375000 0.161964
vt 0.625000 0.161964
vt 0.625000 0.168828
vt 0.375000 0.168828
vt 0.364901 0.615597
vt 0.312116 0.615597
vt 0.125000 0.545022
vt 0.375000 0.545022
vt 0.375000 0.538156
vt 0.375000 0.538156
vt 0.375000 0.545022
vt 0.625000 0.198112
vt 0.375000 0.198112
vt 0.585607 0.182802
vt 0.530089 0.182802
vt 0.530089 0.075609
vt 0.585607 0.075609
vt 0.375000 0.511109
vt 0.125000 0.538156
vt 0.364901 0.750000
vt 0.312116 0.750000
vt 0.312116 0.642807
vt 0.364901 0.642807
vt 0.375000 0.204978
vt 0.625000 0.204978
vt 0.625000 0.211844
vt 0.375000 0.211844
vt 0.978384 0.025754
vt 0.978384 0.077261
vt 0.941813 0.055675
vt 0.941813 0.044050
vt 0.746132 0.782425
vt 0.773941 0.783353
vt 0.773941 0.862472
vt 0.740916 0.837876
vt 0.585607 0.675817
vt 0.530089 0.675817
vt 0.556718 0.599218
vt 0.565049 0.599218
vt 0.474571 0.665807
vt 0.419053 0.665807
vt 0.438774 0.589208
vt 0.451304 0.589208
vt 0.564031 0.768537
vt 0.558667 0.773604
vt 0.553679 0.741327
vt 0.564031 0.741327
vt 0.771333 0.206012
vt 0.742083 0.206012
vt 0.741924 0.070162
vt 0.776968 0.068671
vt 0.625000 0.538156
vt 0.625000 0.538156
vt 0.585607 0.496298
vt 0.530089 0.496298
vt 0.530089 0.367057
vt 0.540441 0.367057
vt 0.924141 0.839538
vt 0.896747 0.840697
vt 0.890106 0.785551
vt 0.924141 0.759631
vt 0.941812 0.161203
vt 0.941812 0.153474
vt 0.978384 0.128768
vt 0.978384 0.180276
vt 0.375000 0.594899
vt 0.893809 0.531005
vt 0.918554 0.531518
vt 0.918554 0.656400
vt 0.888244 0.637236
vt 0.375000 0.750000
vt 0.981798 0.494061
vt 0.981798 0.545569
vt 0.949739 0.527199
vt 0.949739 0.515535
vt 0.375000 0.000000
vt 0.625000 0.000000
vt 0.750003 0.536831
vt 0.775890 0.537019
vt 0.775890 0.673878
vt 0.741565 0.666646
vt 0.583399 0.795748
vt 0.529353 0.795748
vt 0.375000 0.551888
vt 0.875000 0.500000
vt 0.875000 0.511109
vt 0.625000 0.511109
vt 0.585607 0.226828
vt 0.530089 0.226828
vt 0.625000 0.238891
vt 0.375000 0.238891
vt 0.375000 0.238891
vt 0.625000 0.238891
vt 0.625000 0.238891
vt 0.375000 0.238891
vt 0.875000 0.500000
vt 0.875000 0.511109
vt 0.375000 0.250000
vt 0.625000 0.250000
vt 0.125000 0.500000
vt 0.125000 0.511109
vt 0.125000 0.511109
vt 0.125000 0.500000
vt 0.875000 0.500000
vt 0.875000 0.511109
vt 0.375000 0.250000
vt 0.625000 0.250000
vt 0.744186 0.354296
vt 0.799704 0.354296
vt 0.799704 0.430304
vt 0.744186 0.430304
vt 0.375000 0.250000
vt 0.625000 0.250000
vt 0.625000 0.238891
vt 0.375000 0.238891
vt 0.199804 0.127117
vt 0.214293 0.169041
vt 0.185581 0.174994
vt 0.151941 0.143942
vt 0.375000 0.238891
vt 0.625000 0.238891
vt 0.625000 0.238891
vt 0.375000 0.238891
vt 0.125410 0.226577
vt 0.079288 0.216217
vt 0.125000 0.511109
vt 0.125000 0.500000
vt 0.125000 0.500000
vt 0.125000 0.511109
vt 0.125000 0.511109
vt 0.125000 0.500000
vt 0.115692 0.247130
vt 0.071431 0.263006
vt 0.107000 0.910936
vt 0.107000 0.859429
vt 0.131191 0.859429
vt 0.131191 0.910936
vt 0.375000 0.238891
vt 0.625000 0.238891
vt 0.625000 0.238891
vt 0.375000 0.238891
vt 0.985290 0.744851
vt 0.985290 0.796359
vt 0.955869 0.796359
vt 0.955869 0.744851
vt 0.124037 0.273304
vt 0.091722 0.305545
vt 0.139014 0.346344
vt 0.171329 0.314103
vt 0.188446 0.332371
vt 0.176175 0.374900
vt 0.125000 0.511109
vt 0.125000 0.500000
vt 0.474571 0.793976
vt 0.419053 0.793976
vt 0.419053 0.734063
vt 0.474571 0.734063
vt 0.125000 0.500000
vt 0.125000 0.511109
vt 0.125000 0.511109
vt 0.125000 0.500000
vt 0.954204 0.899373
vt 0.954204 0.847866
vt 0.980295 0.847866
vt 0.980295 0.899373
vt 0.625000 0.238891
vt 0.375000 0.238891
vt 0.635868 0.898190
vt 0.635868 0.846682
vt 0.680871 0.843611
vt 0.680871 0.895118
vt 0.150962 0.910936
vt 0.150962 0.859429
vt 0.166315 0.859429
vt 0.166315 0.910936
vt 0.927570 0.366244
vt 0.927570 0.314737
vt 0.966317 0.314737
vt 0.966317 0.366244
vt 0.202151 0.338791
vt 0.214293 0.381351
vt 0.125000 0.500000
vt 0.125000 0.511109
vt 0.125000 0.511109
vt 0.125000 0.500000
vt 0.458135 0.845931
vt 0.458135 0.889928
vt 0.442270 0.887360
vt 0.413574 0.852332
vt 0.625000 0.250000
vt 0.375000 0.250000
vt 0.375000 0.250000
vt 0.625000 0.250000
vt 0.125000 0.511109
vt 0.125000 0.500000
vt 0.375000 0.250000
vt 0.625000 0.250000
vt 0.641126 0.521898
vt 0.696644 0.521898
vt 0.696644 0.629079
vt 0.641126 0.629079
vt 0.071179 0.669241
vt 0.023726 0.668867
vt 0.025577 0.574240
vt 0.071179 0.562059
vt 0.171921 0.636987
vt 0.120577 0.617392
vt 0.120577 0.551308
vt 0.171921 0.570903
vt 0.375000 0.250000
vt 0.625000 0.250000
vt 0.064061 0.756652
vt 0.064061 0.808159
vt 0.021354 0.824290
vt 0.021354 0.772783
vt 0.570388 0.848786
vt 0.570388 0.892812
vt 0.525016 0.900441
vt 0.525016 0.856415
vt 0.125000 0.500000
vt 0.125000 0.511109
vt 0.125000 0.511109
vt 0.125000 0.500000
vt 0.853058 0.810527
vt 0.813054 0.786845
vt 0.813054 0.720761
vt 0.853058 0.744443
vt 0.375000 0.250000
vt 0.625000 0.250000
vt 0.625000 0.250000
vt 0.375000 0.250000
vt 0.375000 0.250000
vt 0.625000 0.250000
vt 0.641126 0.716083
vt 0.696644 0.716083
vt 0.696644 0.782908
vt 0.641126 0.782908
vt 0.209047 0.743719
vt 0.256501 0.743719
vt 0.256501 0.810545
vt 0.209047 0.810545
vt 0.845751 0.140482
vt 0.811577 0.181075
vt 0.811576 0.100951
vt 0.845751 0.060358
vt 0.259569 0.625444
vt 0.218251 0.659847
vt 0.218251 0.593331
vt 0.259569 0.558928
vt 0.888013 0.423476
vt 0.847647 0.400330
vt 0.847647 0.333814
vt 0.888013 0.356961
vt 0.125000 0.511109
vt 0.125000 0.500000
vt 0.125000 0.500000
vt 0.125000 0.511109
vt 0.125000 0.511109
vt 0.125000 0.500000
vt 0.813061 0.543861
vt 0.853079 0.520200
vt 0.853079 0.600324
vt 0.813061 0.623985
vt 0.375000 0.250000
vt 0.625000 0.250000
vt 0.117439 0.795213
vt 0.117439 0.743706
vt 0.162508 0.718289
vt 0.162508 0.769796
vt 0.375000 0.250000
vt 0.625000 0.250000
vt 0.690662 0.409259
vt 0.639132 0.390090
vt 0.639132 0.291161
vt 0.690662 0.310331
vt 0.875000 0.511109
vt 0.875000 0.500000
vt 0.875000 0.500000
vt 0.875000 0.511109
vt 0.375000 0.238891
vt 0.625000 0.238891
vt 0.625000 0.250000
vt 0.375000 0.250000
vt 0.875000 0.500000
vt 0.875000 0.511109
vt 0.125000 0.511109
vt 0.125000 0.500000
vn 0.0000 1.0000 0.0000
vn 0.0000 0.0000 1.0000
vn 0.0000 -1.0000 0.0000
vn 0.0000 0.0000 -1.0000
vn 1.0000 0.0000 0.0000
vn -1.0000 0.0000 0.0000
vn 0.8260 0.0000 0.5636
vn 0.0859 -0.9222 0.3769
vn 0.0748 0.9410 -0.3299
vn 0.1363 -0.9496 -0.2821
vn -0.0659 -0.9475 0.3128
vn 0.8017 0.0000 -0.5977
vn 0.1521 0.9368 0.3150
vn 0.3215 0.9440 -0.0734
vn 0.1709 0.9195 -0.3539
vn 0.8017 0.0000 0.5977
vn 0.1312 -0.9534 0.2717
vn 0.0750 0.9413 0.3291
vn 0.0857 -0.9219 -0.3778
vn 0.8176 0.0000 -0.5758
vn 0.2266 0.8531 0.4701
vn -0.5169 0.0000 0.8560
vn -0.1076 0.0000 0.9942
vn -0.6598 0.0000 -0.7515
vn 0.3607 0.0000 -0.9327
vn 0.9855 0.0000 -0.1696
vn 0.7671 0.0000 -0.6415
vn -0.8503 0.0000 0.5262
vn -0.8776 0.0000 -0.4793
vn -0.9954 0.0000 0.0959
vn 0.9711 0.0000 0.2387
vn -0.0945 0.0000 -0.9955
vn 0.5881 0.0000 0.8088
vn -0.4792 0.0000 -0.8777
vn 0.0945 0.0000 0.9955
vn 0.1994 0.0000 0.9799
vn -0.0373 0.0000 -0.9993
vn 0.8764 0.0000 -0.4815
vn -0.1858 0.0000 0.9826
vn 0.4565 0.0000 -0.8897
vn -0.0367 0.9936 -0.1069
vn 0.0367 -0.9936 0.1069
vn -0.6697 0.0000 0.7426
vn -0.1078 -0.9237 0.3678
vn -0.9999 0.0000 0.0134
vn 1.0000 0.0000 0.0047
vn 0.6171 0.0000 0.7869
vn -0.8876 0.0000 -0.4607
vn 0.8876 0.0000 0.4607
vn 0.1078 0.9237 -0.3678
vn 0.1269 0.8924 -0.4331
vn -0.1269 -0.8924 0.4331
vn -0.6171 0.0000 -0.7869
vn -0.4806 0.0000 -0.8769
vn -0.9597 0.0000 -0.2812
vn 0.9597 0.0000 0.2812
vn 0.7134 0.0000 -0.7008
vn 0.4806 0.0000 0.8769
vn -0.2208 0.6192 0.7535
vn 0.2208 -0.6192 -0.7535
vn -0.1119 -0.9175 0.3818
vn -0.2628 0.3559 0.8968
vn 0.2628 -0.3559 -0.8968
vn -0.7134 0.0000 0.7008
vn 0.9994 0.0000 -0.0357
vn -0.9944 0.0000 0.1055
vn 0.9944 0.0000 -0.1055
vn 0.1119 0.9175 -0.3818
vn -0.2812 0.0000 0.9597
vn 0.1517 0.8421 -0.5176
vn -0.1517 -0.8421 0.5176
vn -0.9994 0.0000 0.0357
usemtl Material.001
s off
f 48/1/1 49/2/1 7/3/1 3/4/1
f 4/5/2 3/6/2 7/7/2 8/8/2
f 6/9/3 61/10/3 66/11/3 64/12/3
f 47/13/3 50/14/3 4/15/3 8/16/3
f 3/6/2 4/5/2 14/17/2 13/18/2
f 6/19/4 5/20/4 1/21/4 2/22/4
f 18/23/5 20/24/5 10/25/5 12/26/5
f 19/27/3 18/28/3 12/29/3 9/30/3
f 47/31/6 49/32/6 11/33/6 9/34/6
f 20/35/1 17/36/1 11/37/1 10/38/1
f 52/39/7 51/40/7 13/41/7 14/42/7
f 50/14/8 12/29/8 16/43/8 52/44/8
f 48/45/9 3/46/9 13/47/9 51/48/9
f 12/29/4 10/49/4 15/50/4 16/43/4
f 42/51/1 43/52/1 17/36/1 20/35/1
f 41/53/3 44/54/3 18/28/3 19/27/3
f 44/54/10 22/55/10 36/56/10 46/57/10
f 9/34/6 11/33/6 17/58/6 19/59/6
f 26/60/5 28/61/5 24/62/5 22/63/5
f 27/64/3 26/65/3 22/55/3 23/66/3
f 28/67/1 25/68/1 21/69/1 24/70/1
f 41/71/6 43/72/6 21/73/6 23/74/6
f 54/75/1 55/76/1 25/68/1 28/67/1
f 53/77/3 56/78/3 26/65/3 27/64/3
f 56/78/11 30/79/11 40/80/11 58/81/11
f 23/74/6 21/73/6 25/82/6 27/83/6
f 60/84/5 62/85/5 32/86/5 30/87/5
f 61/10/3 60/88/3 30/79/3 31/89/3
f 62/90/1 59/91/1 29/92/1 32/93/1
f 53/94/6 55/95/6 29/96/6 31/97/6
f 46/98/12 45/99/12 34/100/12 35/101/12
f 42/102/13 20/103/13 34/104/13 45/105/13
f 22/106/4 24/107/4 33/108/4 36/109/4
f 20/110/2 18/111/2 35/112/2 34/113/2
f 58/114/5 57/115/5 38/116/5 39/117/5
f 54/118/14 28/119/14 38/120/14 57/121/14
f 30/79/4 32/122/4 37/123/4 40/80/4
f 28/124/2 26/125/2 39/126/2 38/127/2
f 24/128/15 42/129/15 45/130/15 33/131/15
f 36/132/16 33/133/16 45/134/16 46/135/16
f 19/59/6 17/58/6 43/72/6 41/71/6
f 18/28/17 44/54/17 46/57/17 35/136/17
f 23/66/3 22/55/3 44/54/3 41/53/3
f 24/70/1 21/69/1 43/52/1 42/51/1
f 10/137/18 48/138/18 51/139/18 15/140/18
f 4/15/19 50/14/19 52/44/19 14/141/19
f 16/142/20 15/143/20 51/144/20 52/145/20
f 8/146/6 7/147/6 49/32/6 47/31/6
f 9/30/3 12/29/3 50/14/3 47/13/3
f 10/38/1 11/37/1 49/2/1 48/1/1
f 32/148/21 54/149/21 57/150/21 37/151/21
f 40/152/5 37/153/5 57/115/5 58/114/5
f 27/83/6 25/82/6 55/95/6 53/94/6
f 26/65/3 56/78/3 58/81/3 39/154/3
f 31/89/3 30/79/3 56/78/3 53/77/3
f 32/93/1 29/92/1 55/76/1 54/75/1
f 1/21/1 5/155/1 59/156/1 62/157/1
f 6/9/3 2/22/3 60/88/3 61/10/3
f 2/158/5 1/159/5 62/85/5 60/84/5
f 31/97/6 29/96/6 59/160/6 61/161/6
f 66/162/22 65/163/22 69/164/22 70/165/22
f 59/156/1 5/155/1 63/166/1 65/167/1
f 61/161/23 59/160/23 65/163/23 66/162/23
f 5/20/24 6/19/24 64/168/24 63/169/24
f 68/170/3 70/171/3 74/172/3 72/173/3
f 65/167/1 63/166/1 67/174/1 69/175/1
f 64/12/3 66/11/3 70/171/3 68/170/3
f 63/169/25 64/168/25 68/176/25 67/177/25
f 71/178/26 72/179/26 76/180/26 75/181/26
f 67/177/27 68/176/27 72/182/27 71/183/27
f 70/165/28 69/164/28 73/184/28 74/185/28
f 69/186/1 67/187/1 71/188/1 73/189/1
f 78/190/29 77/191/29 81/192/29 82/193/29
f 74/185/30 73/184/30 77/191/30 78/190/30
f 73/189/1 71/188/1 75/194/1 77/195/1
f 72/173/3 74/172/3 78/196/3 76/197/3
f 80/198/3 82/199/3 86/200/3 84/201/3
f 77/195/1 75/194/1 79/202/1 81/203/1
f 76/197/3 78/196/3 82/199/3 80/198/3
f 75/204/31 76/205/31 80/206/31 79/207/31
f 86/208/32 85/209/32 89/210/32 90/211/32
f 79/212/33 80/213/33 84/214/33 83/215/33
f 82/193/34 81/192/34 85/209/34 86/208/34
f 81/203/1 79/202/1 83/216/1 85/217/1
f 89/218/1 87/219/1 91/220/1 93/221/1
f 85/217/1 83/216/1 87/219/1 89/218/1
f 84/201/3 86/200/3 90/222/3 88/223/3
f 83/224/35 84/225/35 88/226/35 87/227/35
f 92/228/3 94/229/3 98/230/3 96/231/3
f 88/223/3 90/222/3 94/229/3 92/228/3
f 87/232/36 88/233/36 92/234/36 91/235/36
f 90/211/37 89/210/37 93/236/37 94/237/37
f 98/238/38 97/239/38 101/240/38 102/241/38
f 91/242/39 92/243/39 96/244/39 95/245/39
f 94/246/40 93/247/40 97/248/40 98/249/40
f 93/221/1 91/220/1 95/250/1 97/251/1
f 100/252/3 102/253/3 106/254/3 104/255/3
f 97/256/41 95/257/41 99/258/41 101/259/41
f 96/231/42 98/230/42 102/253/42 100/252/42
f 95/260/43 96/261/43 100/262/43 99/263/43
f 104/255/44 106/254/44 110/264/44 108/265/44
f 99/263/45 100/262/45 104/266/45 103/267/45
f 102/268/46 101/269/46 105/270/46 106/271/46
f 101/272/1 99/273/1 103/274/1 105/275/1
f 110/276/47 109/277/47 113/278/47 114/279/47
f 103/267/48 104/266/48 108/280/48 107/281/48
f 106/282/49 105/283/49 109/284/49 110/285/49
f 105/286/50 103/287/50 107/288/50 109/289/50
f 112/290/3 114/291/3 118/292/3 116/293/3
f 109/294/51 107/295/51 111/296/51 113/297/51
f 108/265/52 110/264/52 114/291/52 112/290/52
f 107/281/53 108/280/53 112/298/53 111/299/53
f 115/300/54 116/301/54 120/302/54 119/303/54
f 111/299/55 112/298/55 116/301/55 115/300/55
f 114/304/56 113/305/56 117/306/56 118/307/56
f 113/308/1 111/309/1 115/310/1 117/311/1
f 122/312/57 121/313/57 125/314/57 126/315/57
f 118/316/58 117/317/58 121/318/58 122/319/58
f 117/320/59 115/321/59 119/322/59 121/323/59
f 116/293/60 118/292/60 122/324/60 120/325/60
f 124/326/61 126/327/61 130/328/61 128/329/61
f 121/330/62 119/331/62 123/332/62 125/333/62
f 120/325/63 122/324/63 126/327/63 124/326/63
f 119/303/64 120/302/64 124/334/64 123/335/64
f 130/336/65 129/337/65 133/338/65 134/339/65
f 123/335/66 124/334/66 128/340/66 127/341/66
f 126/342/67 125/343/67 129/344/67 130/345/67
f 125/346/68 123/347/68 127/348/68 129/349/68
f 134/350/69 133/351/69 131/352/69 132/353/69
f 129/349/70 127/348/70 131/354/70 133/355/70
f 128/329/71 130/328/71 134/356/71 132/357/71
f 127/341/72 128/340/72 132/353/72 131/352/72
